<?xml version="1.0" standalone="no"?>
<!DOCTYPE svg PUBLIC "-//W3C//DTD SVG 20010904//EN"
 "http://www.w3.org/TR/2001/REC-SVG-20010904/DTD/svg10.dtd">
<svg version="1.0" xmlns="http://www.w3.org/2000/svg"
 width="266.000000pt" height="266.000000pt" viewBox="0 0 266.000000 266.000000"
 preserveAspectRatio="xMidYMid meet">
<metadata>
Created by potrace 1.11, written by Peter Selinger 2001-2013
</metadata>
<g transform="translate(0.000000,266.000000) scale(0.100000,-0.100000)"
fill="#000000" stroke="none">
<path d="M1075 2470 c-293 -46 -527 -164 -705 -358 -249 -270 -400 -658 -363
-935 46 -342 340 -731 683 -902 136 -68 333 -115 485 -115 207 0 457 78 648
203 68 44 96 71 154 148 195 257 371 613 512 1039 57 170 134 446 129 459 -3
10 -65 -66 -612 -749 l-388 -485 -78 -41 c-126 -66 -229 -89 -395 -89 -160 0
-212 12 -313 72 -141 84 -250 215 -306 368 -38 106 -48 277 -21 388 67 280
295 481 612 537 110 20 326 8 437 -23 49 -14 93 -30 98 -35 9 -9 -100 -173
-209 -315 -108 -140 -212 -219 -460 -348 -79 -41 -142 -78 -140 -84 7 -20 154
-86 227 -101 124 -26 262 -3 399 66 145 73 242 158 447 390 118 135 534 647
534 658 0 11 -461 147 -635 187 -82 19 -195 42 -250 50 -119 19 -406 28 -490
15z"/>
</g>
</svg>
