<svg xmlns="http://www.w3.org/2000/svg" viewBox="0 0 913.16 152.24"><defs><style>.cls-1{fill:#1DC0FF;}.cls-2{fill:#2d2d2d;}</style></defs><title>son</title><g id="Layer_1" data-name="Layer 1"><path class="cls-1" d="M849.55,558.43c15.3-16.31,28.77-32.25,43.94-46.37,13.32-12.4,29.13-12.15,42.21-1.36-24.84-.48-31.79,20.44-44.75,34.54,26.32,12.29,56.63-2,60.3-26,2-13-5.15-28.91-17.62-36.33-9.4-5.59-29-3.69-37,5.15-12.84,14-24.93,28.78-36.81,43.65-13.61,17-26.85,33.39-49.78,39.53-33.32,8.93-62.39-14.14-71.93-42.82-7-21.13,9.11-51.93,28.51-63.62,21-12.65,42.27-9.79,64-4.68,9.82,2.31,19.4,5.61,30.16,8.78-12.37,14.85-23.26,29.76-36.05,42.83-16,16.35-33.91,18.08-46.28,8.31,7.65-4.33,17-7.9,24.07-14.11,7.21-6.36,12.12-15.31,18.18-23.3-25.07-9.69-51.1.12-58.06,21.26-5.45,16.58,2.19,34.82,18.69,42.72,9.7,4.64,32,2.87,40.94-10.13a588.64,588.64,0,0,1,49.24-62.16c16.59-18.28,39.05-23.81,62.45-16.17,24.95,8.14,39.33,27.23,41,53.34,1.65,26.33-15.15,50.34-46.66,59.38-21.52,6.17-41.65-2.1-62-7C861.13,562.65,856.23,560.64,849.55,558.43Z" transform="translate(-61.84 -449.17)"/><path class="cls-1" d="M107.53,466q13.87,0,22,6.75t8.14,19a28.66,28.66,0,0,1-12.21,24,45.63,45.63,0,0,1-12.58,5.73A97.5,97.5,0,0,1,85,525.19q.55,9.81,6.1,15.82t17,6q11.47,0,22.94-8.14l7,15q-3.7,3.33-12.49,6.84a53.76,53.76,0,0,1-20.07,3.51q-22.57,0-33.11-12.49T61.84,517.42q0-21.82,12-36.63T107.53,466Zm-8.42,42.27a30,30,0,0,0,12.49-5.36q5.73-4.16,5.73-9.9,0-11.28-11.1-11.28-10.36,0-15.91,8.23a37.79,37.79,0,0,0-6.1,19.7A97.51,97.51,0,0,0,99.12,508.27Z" transform="translate(-61.84 -449.17)"/><path class="cls-1" d="M149.52,483.57v-14.8h31.26v12A33.71,33.71,0,0,1,193.55,470a37.93,37.93,0,0,1,17.2-4q14.06,0,21.73,8t7.68,24.14v48.28l10.54.55v14.8h-44V547.76l6.1-.55a7.3,7.3,0,0,0,4.07-1.57q1.29-1.2,1.29-4.53V503q0-10.17-3.14-15.08T203.07,483q-8.79,0-14,5.55a18.6,18.6,0,0,0-5.18,13.13v44.76l10.54.55v14.8h-44V547.76l6.1-.55a7.3,7.3,0,0,0,4.07-1.57q1.29-1.2,1.29-4.53V489.86q0-5.55-4.62-5.73Z" transform="translate(-61.84 -449.17)"/><path class="cls-1" d="M274.75,449.17h12v19.61h24.6l-1.85,15.54H286.77V533q0,8.14,3,11.38t9.16,3.24a23.63,23.63,0,0,0,12.49-3.88l5.55,14.24q-9.25,6.47-23.49,6.47a40.69,40.69,0,0,1-14.06-2.13,25.52,25.52,0,0,1-8.51-4.72,16.55,16.55,0,0,1-4.25-7.58,38,38,0,0,1-1.66-7.86q-.19-2.87-.19-8.42V484.31H251.63l1.85-13.5q8.69-.74,13.13-6.2T274.75,449.17Z" transform="translate(-61.84 -449.17)"/><path class="cls-1" d="M335.42,541.1V489.86q0-3-1-4.16a5,5,0,0,0-3.61-1.39l-7.77-.55v-15h31.26v13.87a28.7,28.7,0,0,1,10.36-11.93A28.36,28.36,0,0,1,380.83,466a39.33,39.33,0,0,1,17.48,4.07v27.56l-17.2,1.29v-8.51q0-3.7-1.85-4.62a12.07,12.07,0,0,0-5-.92,15.52,15.52,0,0,0-12.12,5.27q-4.72,5.27-4.72,13.41v42.92l16.09.74v14.61H324V547.76l6.1-.55a7.3,7.3,0,0,0,4.07-1.57Q335.42,544.43,335.42,541.1Z" transform="translate(-61.84 -449.17)"/><path class="cls-1" d="M477.48,558.3V544.24q-10.17,14.43-30,14.43-28.67,0-28.67-32V489.49q0-5-4.62-5.18l-5.92-.37V468.77h32.56v53.09q0,9.81,2.77,14.8t11.47,5q8.69,0,14-5.36a17.8,17.8,0,0,0,5.27-12.95V489.86q0-3.14-1-4.35t-3.61-1.2l-5.92-.37V468.77h32.56V558.3q0,22.38-10.82,32.74T452.79,601.4q-21.92,0-34.13-6.1V569.58l17.57-1.48V577a6.64,6.64,0,0,0,4.62,6.75q4.62,1.75,12.76,1.76Q477.48,585.49,477.48,558.3Z" transform="translate(-61.84 -449.17)"/><path class="cls-2" d="M619.56,472.47v68.81q0,3,1,4.07a5.28,5.28,0,0,0,3.61,1.29l5.92.37v14.8H600.7V551.09l-.55-.18q-9.25,13.32-25.34,13.32-18.87,0-27.93-12t-9.06-32.92q0-25.16,12.21-39.22T586.64,466Q602.36,466,619.56,472.47ZM598.11,532.4V484.5q-5.18-2.4-14.24-2.4-12.4,0-17.94,10t-5.55,26.45q0,30,19.24,30,8.14,0,13.32-4.9A15,15,0,0,0,598.11,532.4Z" transform="translate(-61.84 -449.17)"/><path class="cls-2" d="M652.86,541.1V489.86q0-3-1-4.16a5,5,0,0,0-3.61-1.39l-7.77-.55v-15h31.26v13.87a28.71,28.71,0,0,1,10.36-11.93A28.36,28.36,0,0,1,698.27,466a39.34,39.34,0,0,1,17.48,4.07v27.56l-17.2,1.29v-8.51q0-3.7-1.85-4.62a12.07,12.07,0,0,0-5-.92,15.52,15.52,0,0,0-12.12,5.27q-4.72,5.27-4.72,13.41v42.92l16.09.74v14.61H641.39V547.76l6.1-.55a7.3,7.3,0,0,0,4.07-1.57Q652.85,544.43,652.86,541.1Z" transform="translate(-61.84 -449.17)"/></g></svg>
