<svg xmlns="http://www.w3.org/2000/svg" viewBox="0 0 471.61 233.93"><defs><style>.cls-1{fill:#f7a31c;}</style></defs><title>Asset 1</title><g id="Layer_2" data-name="Layer 2"><g id="Layer_1-2" data-name="Layer 1"><path class="cls-1" d="M223.67,204.66c30.24-32.24,56.87-63.74,86.85-91.65,26.32-24.5,57.57-24,83.42-2.68-49.09-1-62.84,40.39-88.44,68.28,52,24.28,111.93-3.87,119.17-51.32,3.94-25.76-10.17-57.14-34.82-71.8-18.59-11.05-57.22-7.3-73.22,10.18-25.38,27.73-49.28,56.89-72.76,86.27-26.9,33.66-53.07,66-98.39,78.14-65.86,17.65-123.3-28-142.16-84.63-13.9-41.76,18-102.63,56.36-125.74,41.52-25,83.54-19.36,126.5-9.25,19.4,4.56,38.34,11.09,59.62,17.36-24.44,29.34-46,58.82-71.26,84.65-31.64,32.32-67,35.73-91.48,16.43,15.12-8.56,33.65-15.61,47.57-27.88,14.24-12.56,24-30.25,35.93-46C117,35.8,65.55,55.2,51.8,97,41,129.76,56.12,165.82,88.75,181.42c19.17,9.17,63.28,5.67,80.92-20A1163.44,1163.44,0,0,1,267,38.55c32.79-36.13,77.19-47.06,123.43-32,49.31,16.1,77.74,53.81,81,105.42,3.25,52-29.94,99.5-92.22,117.36-42.54,12.2-82.32-4.15-122.58-13.93C246.54,213,236.87,209,223.67,204.66Z"/></g></g></svg>